<?xml version="1.0" encoding="iso-8859-1"?>
<!-- Uploaded to: SVG Repo, www.svgrepo.com, Generator: SVG Repo Mixer Tools -->
<svg fill="#000000" height="800px" width="800px" version="1.1" id="Layer_1" xmlns="http://www.w3.org/2000/svg" xmlns:xlink="http://www.w3.org/1999/xlink" 
	 viewBox="0 0 512.001 512.001" xml:space="preserve">
<g>
	<g>
		<path d="M322.32,95.585V44.714C322.32,20.058,302.257,0,277.595,0c-5.798,0-10.497,4.7-10.497,10.497s4.7,10.497,10.497,10.497
			c13.086,0,23.731,10.641,23.731,23.72v16.839c-8.127-5.759-18.04-9.157-28.736-9.157h-34.548c-10.618,0-20.555,3.416-28.724,9.218
			V44.713c0.001-13.078,10.642-23.719,23.721-23.719c5.798,0,10.497-4.7,10.497-10.497S238.836,0,233.039,0
			c-24.656,0-44.714,20.058-44.714,44.714v50.941c-96.638,5.396-173.606,85.723-173.606,183.693v23.385
			c0,8.409,4.331,15.964,11.587,20.207c3.682,2.153,7.738,3.232,11.795,3.232c3.927,0,7.856-1.01,11.452-3.032
			c23.64-13.289,82.586-35.551,151.894-44.931c2.05,7.943,6.189,15.224,12.142,21.178c8.408,8.394,19.46,13.168,31.266,13.568
			l0.541,157.443h-3.82c-5.798,0-10.497,4.7-10.497,10.497s4.7,10.497,10.497,10.497h3.892l0.035,10.145
			c0.02,5.786,4.715,10.462,10.496,10.462c0.013,0,0.025,0,0.037,0c5.798-0.02,10.482-4.736,10.462-10.533l-0.035-10.073h3.962
			c5.798,0,10.497-4.7,10.497-10.497s-4.7-10.497-10.497-10.497h-4.033l-0.541-157.44c20.913-0.752,38.35-15.376,43.356-34.93
			c3.619,0.479,7.252,0.996,10.87,1.551c5.733,0.878,11.088-3.056,11.966-8.786s-3.056-11.088-8.786-11.966
			c-7.289-1.117-14.634-2.091-21.833-2.898c-0.002,0-0.004-0.001-0.006-0.001c-6.988-0.845-63.085-5.369-92.541,0.193
			c-71.743,8.297-138.186,31.053-169.613,48.719c-0.979,0.549-1.822,0.291-2.357-0.022c-0.544-0.318-1.193-0.938-1.193-2.085
			v-23.385c0-89.874,73.112-162.992,162.979-162.992h19.629c5.798,0,10.497-4.7,10.497-10.497s-4.7-10.497-10.497-10.497h-8.291
			c3.116-12.629,14.635-21.972,28.013-21.972h34.548c13.532,0,24.912,9.374,28.007,21.972h-8.402c-5.798,0-10.497,4.7-10.497,10.497
			s4.7,10.497,10.497,10.497h19.629c0.018,0,0.036-0.002,0.054-0.003c0.018,0,0.035,0.003,0.054,0.003h1.378
			c89.866,0,162.979,73.118,162.979,162.992v23.385c0,1.146-0.649,1.767-1.192,2.085c-0.535,0.313-1.378,0.572-2.359,0.022
			c-18.033-10.138-47.193-21.474-78.002-30.323c-5.574-1.602-11.387,1.619-12.987,7.192c-1.601,5.573,1.619,11.388,7.192,12.987
			c29.334,8.425,56.815,19.059,73.507,28.443c7.313,4.113,16.005,4.038,23.248-0.198c7.256-4.243,11.587-11.798,11.587-20.207
			v-23.385C497.281,180.924,419.591,100.306,322.32,95.585z M287.885,275.826c-3.731,9.46-12.956,16.175-23.725,16.175h-8.842
			h-0.037h-8.819c-6.809,0-13.215-2.653-18.034-7.464c-2.629-2.628-4.606-5.733-5.865-9.117
			C242.838,273.484,271.619,274.696,287.885,275.826z"/>
	</g>
</g>
<g>
	<g>
		<path d="M364.091,266.625c-2.144-0.49-4.306-0.971-6.486-1.443c-5.671-1.225-11.255,2.37-12.482,8.037
			c-1.227,5.666,2.37,11.255,8.037,12.482c2.102,0.456,4.186,0.919,6.252,1.392c0.787,0.18,1.575,0.266,2.349,0.266
			c4.787,0,9.112-3.295,10.224-8.159C373.276,273.547,369.743,267.918,364.091,266.625z"/>
	</g>
</g>
</svg>